<?xml version="1.0" encoding="utf-8"?>
<!-- Generator: Adobe Illustrator 25.0.1, SVG Export Plug-In . SVG Version: 6.00 Build 0)  -->
<svg version="1.1" id="Capa_1" xmlns="http://www.w3.org/2000/svg" xmlns:xlink="http://www.w3.org/1999/xlink" x="0px" y="0px"
	 viewBox="0 0 129.5319214 29.6170216" style="enable-background:new 0 0 129.5319214 29.6170216;" xml:space="preserve">
<style type="text/css">
	.st0{enable-background:new    ;}
</style>
<g class="st0">
	<path d="M45.8505859,19.0214844h-5.2607422l-0.7211914,1.6757812H37.043457l5.7480469-13.0942383h0.8769531l5.7285156,13.0942383
		h-2.8251953L45.8505859,19.0214844z M43.2202148,12.5327148l-1.6953125,4.324707h3.390625L43.2202148,12.5327148z"/>
	<path d="M59.4697266,16.4492188c0,2.7285156-1.9091797,4.4804688-4.4228516,4.4804688
		c-2.5527344,0-4.4624023-1.7519531-4.4624023-4.4804688v-5.3979492h2.6308594v5.612793
		c0,1.1289062,0.7988281,1.8496094,1.831543,1.8496094c0.9936523,0,1.7924805-0.7207031,1.7924805-1.8496094v-5.612793h2.6303711
		V16.4492188z"/>
	<path d="M68.1787109,18.4941406v2.203125c-0.5449219,0.1367188-1.1298828,0.2324219-1.8115234,0.2324219
		c-2.3774414,0-3.8583984-1.1484375-3.8583984-3.6230469v-4.0336914h-1.5195312v-2.2216797h1.5195312V8.6157227h2.6308594v2.4355469
		h2.7275391v2.2216797h-2.7275391v3.7993164c0,1.1113281,0.5844727,1.5,1.7919922,1.5
		C67.2431641,18.5722656,67.671875,18.5332031,68.1787109,18.4941406z"/>
	<path d="M79.6943359,15.8647461c0,2.8637695-2.3388672,5.0454102-5.203125,5.0454102s-5.1445312-2.1816406-5.1445312-5.0454102
		c0-2.8457031,2.2802734-5.0273438,5.1640625-5.0273438C77.3554688,10.8374023,79.6943359,13.019043,79.6943359,15.8647461z
		 M72.0166016,15.8842773c0,1.5200195,1.0332031,2.6098633,2.4941406,2.6098633c1.4228516,0,2.4941406-1.109375,2.4941406-2.6098633
		c0-1.5205078-1.0712891-2.6503906-2.4941406-2.6503906C73.0498047,13.2338867,72.0166016,14.3637695,72.0166016,15.8842773z"/>
</g>
<g class="st0">
	<path d="M92.1826172,15.980957c0,2.7475586-2.0068359,4.9116211-4.6767578,4.9116211
		c-1.578125,0-3.078125-0.7617188-3.7988281-2.0078125v5.3203125h-0.9746094V11.2856445h0.9355469v1.8896484
		c0.7011719-1.2861328,2.2207031-2.0849609,3.8378906-2.0849609C90.1757812,11.090332,92.1826172,13.253418,92.1826172,15.980957z
		 M91.1699219,16c0-2.2592773-1.5791016-3.9936523-3.7607422-3.9936523c-1.8515625,0-3.7021484,1.1884766-3.7021484,3.9746094
		c0,2.8061523,1.8505859,3.9956055,3.7021484,3.9956055C89.5908203,19.9765625,91.1699219,18.2617188,91.1699219,16z"/>
	<path d="M101.7685547,14.7924805v5.9047852h-0.9355469v-1.4609375c-0.7011719,1.03125-1.8896484,1.65625-3.3710938,1.65625
		c-1.734375,0-3.234375-0.8769531-3.234375-2.5527344c0-1.5410156,1.3056641-2.5141602,3.2734375-2.5141602h3.2734375V14.753418
		c0-1.8505859-1.0517578-2.7470703-2.5917969-2.7470703c-1.2666016,0-2.1230469,0.6230469-2.8642578,1.578125l-0.6816406-0.5458984
		c0.8964844-1.2851562,2.1240234-1.9482422,3.6044922-1.9482422
		C100.2871094,11.090332,101.7685547,12.3374023,101.7685547,14.7924805z M100.7744141,17.1894531v-0.5253906h-3.1757812
		c-1.5390625,0-2.3574219,0.5839844-2.3574219,1.6171875c0,1.2265625,1.1689453,1.7539062,2.3183594,1.7539062
		C99.2939453,20.0351562,100.7744141,18.8261719,100.7744141,17.1894531z"/>
	<path d="M109.8935547,11.2856445v0.8574219H109.40625c-1.5585938,0-3.1953125,1.0712891-3.1953125,3.0195312v5.534668h-0.9746094
		v-9.4116211h0.9355469v1.578125c0.7011719-1.0917969,1.8701172-1.6367188,3.1171875-1.6367188
		C109.5615234,11.2270508,109.7177734,11.2661133,109.8935547,11.2856445z"/>
	<path d="M116.7714844,19.8398438v0.8574219c-0.4482422,0.1171875-0.8964844,0.1953125-1.4619141,0.1953125
		c-1.6367188,0-2.8837891-0.78125-2.8837891-2.8261719v-5.8852539h-1.6367188v-0.8955078h1.6367188V8.6157227h0.9941406v2.6699219
		h3.0390625v0.8955078h-3.0390625v5.8461914c0,1.5390625,0.8955078,1.96875,2.0458984,1.96875
		C115.9140625,19.9960938,116.3037109,19.9375,116.7714844,19.8398438z"/>
	<path d="M127.0976562,16.2148438h-7.8525391c0.0966797,2.2011719,1.7148438,3.7617188,3.8574219,3.7617188
		c1.3056641,0,2.3583984-0.5664062,3.1376953-1.4824219l0.6230469,0.6445312
		c-0.9150391,1.0703125-2.2207031,1.7539062-3.7802734,1.7539062c-2.7275391,0-4.8710938-2.1445312-4.8710938-4.8925781
		c0-2.7270508,2.0849609-4.909668,4.7548828-4.909668c2.2988281,0,4.2089844,1.6171875,4.2089844,4.1894531
		C127.1757812,15.7475586,127.1171875,16.1367188,127.0976562,16.2148438z M119.2841797,15.3383789h6.8779297
		c0.078125-2.1044922-1.4609375-3.3515625-3.234375-3.3515625
		C121.0175781,11.9868164,119.5371094,13.3901367,119.2841797,15.3383789z"/>
</g>
<circle cx="14.3404255" cy="14.9148932" r="13.9148932"/>
</svg>
