<?xml version="1.0" encoding="utf-8"?>
<!-- Generator: Adobe Illustrator 25.0.1, SVG Export Plug-In . SVG Version: 6.00 Build 0)  -->
<svg version="1.1" id="Capa_1" xmlns="http://www.w3.org/2000/svg" xmlns:xlink="http://www.w3.org/1999/xlink" x="0px" y="0px"
	 viewBox="0 0 220.0851135 174.2672272" style="enable-background:new 0 0 220.0851135 174.2672272;" xml:space="preserve">
<style type="text/css">
	.st0{clip-path:url(#SVGID_2_);}
	.st1{clip-path:url(#SVGID_2_);fill:#B67AF4;}
	.st2{fill:#FFFFFF;}
	.st3{clip-path:url(#SVGID_4_);}
	.st4{clip-path:url(#SVGID_4_);fill:#FFE164;}
	.st5{clip-path:url(#SVGID_6_);}
	.st6{clip-path:url(#SVGID_6_);fill:#FFE164;}
	.st7{fill:none;stroke:#FFFFFF;stroke-miterlimit:10;}
	.st8{fill:#9645DD;}
	.st9{fill:#EAEAEA;}
	.st10{clip-path:url(#SVGID_8_);}
	.st11{clip-path:url(#SVGID_8_);fill:none;}
	.st12{clip-path:url(#SVGID_12_);}
	.st13{clip-path:url(#SVGID_12_);fill:#B67AF4;}
	.st14{fill:none;stroke:#9645DD;stroke-linecap:round;stroke-linejoin:round;stroke-miterlimit:10;}
	.st15{clip-path:url(#SVGID_14_);}
	.st16{clip-path:url(#SVGID_14_);fill:#B67AF4;}
	.st17{fill:none;stroke:#EAEAEA;stroke-width:0.5;stroke-miterlimit:10;}
	.st18{fill:#9B9B9B;}
	.st19{clip-path:url(#SVGID_16_);fill:#FFFFFF;}
	.st20{fill:none;stroke:#CCCCCC;stroke-width:0.75;stroke-miterlimit:10;}
	.st21{fill:none;stroke:#B7B7B7;stroke-width:0.75;stroke-miterlimit:10;}
	.st22{fill:#42C694;}
	.st23{fill:#EF5B7B;}
	.st24{clip-path:url(#SVGID_22_);}
	.st25{clip-path:url(#SVGID_22_);fill:#B67AF4;}
	.st26{fill:none;stroke:#727272;stroke-width:0.75;stroke-miterlimit:10;}
	.st27{clip-path:url(#SVGID_24_);fill:#FFFFFF;}
	.st28{clip-path:url(#SVGID_30_);}
	.st29{clip-path:url(#SVGID_30_);fill:#B67AF4;}
	.st30{fill:#D2F9E5;}
	.st31{fill:none;stroke:#3B3D3D;stroke-miterlimit:10;}
	.st32{fill:#B7B7B7;}
	.st33{fill:#EFEFEF;}
	.st34{fill:none;stroke:#000000;stroke-width:0.75;stroke-miterlimit:10;}
	.st35{fill:none;stroke:#777777;stroke-width:0.75;stroke-miterlimit:10;}
	.st36{fill:none;stroke:#A0A0A0;stroke-width:0.75;stroke-miterlimit:10;}
	.st37{fill:#DEC5FF;}
	.st38{fill:none;stroke:#C1C1C1;stroke-width:0.75;stroke-miterlimit:10;}
	.st39{clip-path:url(#SVGID_32_);fill:#FFFFFF;}
	.st40{clip-path:url(#SVGID_38_);fill:#FFFFFF;}
	.st41{clip-path:url(#SVGID_44_);}
	.st42{clip-path:url(#SVGID_44_);fill:#B67AF4;}
	.st43{fill:none;stroke:#42C694;stroke-linecap:round;stroke-linejoin:round;stroke-miterlimit:10;}
	.st44{clip-path:url(#SVGID_46_);fill:#FFFFFF;}
	.st45{clip-path:url(#SVGID_52_);fill:#FFFFFF;}
	.st46{fill:#009FE3;}
	.st47{fill:#6B1A6B;}
	.st48{fill:#D6006D;}
	.st49{fill:none;stroke:#42C694;stroke-miterlimit:10;}
	.st50{fill:#3B3D3D;}
</style>
<g>
	<rect x="5.8590422" y="118.462616" width="202.9787598" height="1"/>
</g>
<g>
	<path d="M59.0689201,161.4357605c0-6.1323242,4.6757812-10.2202148,10.4726601-10.2202148
		c2.6875,0,5.2919922,0.840332,7.2792969,2.3242188l-1.3994141,2.6040039l-0.1962891,0.027832
		c-1.5400391-1.315918-3.8642578-1.8481445-5.5722656-1.8481445c-3.8076172,0-7.0839882,2.828125-7.0839882,7.0839844
		c0,4.1723633,3.4160194,6.972168,7.1406288,6.972168c2.3515625,0,4.9550781-0.8681641,6.5791016-2.184082h0.2519531v3.2758789
		c-1.7353516,1.2319336-4.3671875,2.0161133-7.2236328,2.0161133
		C63.801342,171.4875183,59.0689201,167.45578,59.0689201,161.4357605z"/>
	<path d="M92.780838,163.9274597v7.2241211h-2.7724609l-0.2236328-2.9960938
		c-1.0361328,1.9321289-3.3603516,3.3320312-5.5439453,3.3320312c-3.2197266,0-5.3759766-1.9321289-5.3759766-4.6757812
		c0-2.9960938,2.6035156-4.8442383,6.0195312-4.8442383c1.7919922,0,3.4726562,0.5600586,4.6767578,1.4560547
		c-0.0283203-3.2480469-2.15625-4.2280273-4.5644531-4.2280273c-1.5683594,0-3.3603516,0.4482422-4.84375,1.1201172v-2.5478516
		c1.3154297-0.7280273,3.6953125-1.2319336,5.7119141-1.2319336C90.0366974,156.5358582,92.780838,158.915741,92.780838,163.9274597
		z M89.5044708,165.5514832c-1.0634766-0.8398438-2.6035156-1.315918-4.1162109-1.315918
		c-2.015625,0-3.3320312,0.8959961-3.3320312,2.3798828c0,1.4003906,1.2041016,2.3242188,3.0244141,2.3242188
		C86.8169708,168.9396667,88.8042755,167.6237488,89.5044708,165.5514832z"/>
	<path d="M118.624588,162.3595886v8.7919922h-3.1914062v-8.4277344c0-2.0722656-0.7841797-3.3881836-2.5761719-3.3881836
		c-1.2597656,0-2.6318359,0.8398438-3.5283203,2.1557617c0.0283203,0.2802734,0.0283203,0.5600586,0.0283203,0.8681641v8.7919922
		h-3.2197266v-8.4277344c0-2.0722656-0.7558594-3.3881836-2.5761719-3.3881836c-1.2324219,0-2.6044922,0.8120117-3.5,2.1000977
		v9.7158203h-3.2197266v-14.2797852h2.828125l0.1953125,2.8837891c0.9521484-1.7358398,2.6601562-3.2197266,4.7880859-3.2197266
		c2.3242188,0,3.8085938,1.2597656,4.3964844,3.3598633c0.9238281-1.7919922,2.7158203-3.3598633,4.8720703-3.3598633
		C117.0572052,156.5358582,118.624588,158.8317566,118.624588,162.3595886z"/>
	<path d="M122.3482208,151.9718933c0-1.1201172,0.8964844-1.9604492,1.9882812-1.9604492
		c1.1757812,0,2.015625,0.840332,2.015625,1.9604492c0,1.1196289-0.8955078,1.9599609-2.015625,1.9599609
		C123.2447052,153.9318542,122.3482208,153.0915222,122.3482208,151.9718933z M122.740799,156.8717957h3.2197266v14.2797852
		h-3.2197266V156.8717957z"/>
	<path d="M129.2368927,163.9836121c0-4.3120117,3.4160156-7.4477539,7.671875-7.4477539
		c4.2841797,0,7.7001953,3.1357422,7.7001953,7.4477539c0,4.3681641-3.4160156,7.5039062-7.7001953,7.5039062
		C132.6529083,171.4875183,129.2368927,168.3517761,129.2368927,163.9836121z M141.4165802,163.9836121
		c0-2.6601562-2.0722656-4.6479492-4.5078125-4.6479492c-2.4082031,0-4.4804688,1.987793-4.4804688,4.6479492
		c0,2.6879883,2.0722656,4.7041016,4.4804688,4.7041016C139.3443146,168.6877136,141.4165802,166.6716003,141.4165802,163.9836121z
		 M138.0005646,149.8156433h3.6123047v0.3920898l-4.9277344,4.3398438h-1.7919922L138.0005646,149.8156433z"/>
	<path d="M161.0161896,162.3595886v8.7919922h-3.2197266v-8.4277344c0-2.0722656-1.1767578-3.3881836-2.96875-3.3881836
		c-1.2880859,0-2.7714844,0.8398438-3.7236328,2.1279297v9.6879883h-3.2197266v-14.2797852h2.828125l0.1953125,2.8837891
		c0.9804688-1.7358398,2.8564453-3.2197266,4.984375-3.2197266
		C159.0279083,156.5358582,161.0161896,158.8317566,161.0161896,162.3595886z"/>
</g>
<g>
	<g>
		<g>
			<path d="M50.0711594,51.7518883v26.6411705c0.00354,3.3322754,2.704113,6.0328369,6.0363808,6.036377h8.2087593
				c0.9917603,6.9276886,6.9258041,12.0727539,13.9242249,12.0727539s12.9324646-5.1450653,13.9242249-12.0727539h36.5398865
				c0.9917603,6.9276886,6.9257965,12.0727539,13.9242249,12.0727539c6.9984131,0,12.9324646-5.1450653,13.9242249-12.0727539
				h4.184906c3.3322601-0.00354,6.0328369-2.7041092,6.036377-6.036377v-6.036377h2.0120392
				c0.533844,0,1.0457611-0.2119751,1.4230347-0.5892563c0.3775024-0.3775101,0.5894928-0.8894196,0.5892487-1.423027V18.0290565
				c-0.00354-3.3322697-2.7041016-6.0328398-6.036377-6.0363779H94.3378372
				c-3.3322754,0.0035362-6.0328369,2.7041063-6.036377,6.036376v12.072752H69.9909592
				c-1.7293243-0.0035362-3.3770676,0.7347431-4.5253906,2.0278473L51.6047783,47.7393456
				C50.6184464,48.8433456,50.0725784,50.2713242,50.0711594,51.7518883z M92.325798,68.3321152V18.0290565
				c0.000946-1.1108341,0.9012146-2.0108681,2.0120468-2.0120468h70.424469
				c1.1108398,0.0009441,2.0108643,0.9012127,2.0120544,2.0120468v50.3030586H92.325798z M152.4669647,72.3564529h10.2830658
				v6.036377c-0.000946,1.1108322-0.9012146,2.0108643-2.0120392,2.0120392h-4.184906
				C156.1135559,77.3456573,154.6773224,74.5168076,152.4669647,72.3564529z M132.5681458,82.4171448
				c0-5.5562897,4.5044098-10.0606995,10.0607147-10.0606995c5.5562897,0,10.0606995,4.5041733,10.0606995,10.0604706
				s-4.5044098,10.0607071-10.0606995,10.0607071C137.0753937,92.4712524,132.5747528,87.9706192,132.5681458,82.4171448z
				 M122.5076828,72.3564529h10.2830582c-2.2103577,2.1601181-3.646347,4.9892044-4.0858765,8.0484161h-6.1971817V72.3564529z
				 M104.3985519,72.3564453h14.0848007v8.0484238h-14.0848007V72.3564453z M88.0791092,72.3564453h12.2951126v8.0484238h-8.2092361
				C91.7254562,77.3456573,90.2894592,74.5168076,88.0791092,72.3564453z M68.1802979,82.4169159
				c0-5.5562973,4.5044098-10.0606995,10.0606995-10.0606995c5.5565338,0,10.0607071,4.5044022,10.0607071,10.0606995
				S83.7972946,92.477623,78.2409973,92.477623C72.687294,92.4712524,68.1868896,87.9706192,68.1802979,82.4169159z
				 M54.0954857,60.2836952h20.1211815c3.3322678-0.00354,6.0328369-2.704113,6.036377-6.0363808V34.1261406h8.0486526v34.2059669
				H78.2409897c-6.9939423,0.0125046-12.9209061,5.1514435-13.9242249,12.0727615h-8.2092323
				c-1.110836-0.000946-2.0108643-0.9012146-2.0120468-2.0120468V60.2836952z M54.0952492,56.2593613v-4.507473
				c0.0023537-0.4942284,0.1858063-0.9703026,0.5159187-1.3381424l13.8657532-15.6155891
				c0.3850479-0.4305649,0.9363403-0.6753235,1.5140381-0.67202h6.2377472v20.1211739
				c-0.0009384,1.1108398-0.901207,2.0108681-2.0120392,2.0120506H54.0954857H54.0952492z"/>
		</g>
	</g>
</g>
</svg>
