<?xml version="1.0" encoding="utf-8"?>
<!-- Generator: Adobe Illustrator 25.0.1, SVG Export Plug-In . SVG Version: 6.00 Build 0)  -->
<svg version="1.1" id="Capa_1" xmlns="http://www.w3.org/2000/svg" xmlns:xlink="http://www.w3.org/1999/xlink" x="0px" y="0px"
	 viewBox="0 0 220.0851135 174.2672272" style="enable-background:new 0 0 220.0851135 174.2672272;" xml:space="preserve">
<style type="text/css">
	.st0{clip-path:url(#SVGID_2_);}
	.st1{clip-path:url(#SVGID_2_);fill:#B67AF4;}
	.st2{fill:#FFFFFF;}
	.st3{clip-path:url(#SVGID_4_);}
	.st4{clip-path:url(#SVGID_4_);fill:#FFE164;}
	.st5{clip-path:url(#SVGID_6_);}
	.st6{clip-path:url(#SVGID_6_);fill:#FFE164;}
	.st7{fill:none;stroke:#FFFFFF;stroke-miterlimit:10;}
	.st8{fill:#9645DD;}
	.st9{fill:#EAEAEA;}
	.st10{clip-path:url(#SVGID_8_);}
	.st11{clip-path:url(#SVGID_8_);fill:none;}
	.st12{clip-path:url(#SVGID_12_);}
	.st13{clip-path:url(#SVGID_12_);fill:#B67AF4;}
	.st14{fill:none;stroke:#9645DD;stroke-linecap:round;stroke-linejoin:round;stroke-miterlimit:10;}
	.st15{clip-path:url(#SVGID_14_);}
	.st16{clip-path:url(#SVGID_14_);fill:#B67AF4;}
	.st17{fill:none;stroke:#EAEAEA;stroke-width:0.5;stroke-miterlimit:10;}
	.st18{fill:#9B9B9B;}
	.st19{clip-path:url(#SVGID_16_);fill:#FFFFFF;}
	.st20{fill:none;stroke:#CCCCCC;stroke-width:0.75;stroke-miterlimit:10;}
	.st21{fill:none;stroke:#B7B7B7;stroke-width:0.75;stroke-miterlimit:10;}
	.st22{fill:#42C694;}
	.st23{fill:#EF5B7B;}
	.st24{clip-path:url(#SVGID_22_);}
	.st25{clip-path:url(#SVGID_22_);fill:#B67AF4;}
	.st26{fill:none;stroke:#727272;stroke-width:0.75;stroke-miterlimit:10;}
	.st27{clip-path:url(#SVGID_24_);fill:#FFFFFF;}
	.st28{clip-path:url(#SVGID_30_);}
	.st29{clip-path:url(#SVGID_30_);fill:#B67AF4;}
	.st30{fill:#D2F9E5;}
	.st31{fill:none;stroke:#3B3D3D;stroke-miterlimit:10;}
	.st32{fill:#B7B7B7;}
	.st33{fill:#EFEFEF;}
	.st34{fill:none;stroke:#000000;stroke-width:0.75;stroke-miterlimit:10;}
	.st35{fill:none;stroke:#777777;stroke-width:0.75;stroke-miterlimit:10;}
	.st36{fill:none;stroke:#A0A0A0;stroke-width:0.75;stroke-miterlimit:10;}
	.st37{fill:#DEC5FF;}
	.st38{fill:none;stroke:#C1C1C1;stroke-width:0.75;stroke-miterlimit:10;}
	.st39{clip-path:url(#SVGID_32_);fill:#FFFFFF;}
	.st40{clip-path:url(#SVGID_38_);fill:#FFFFFF;}
	.st41{clip-path:url(#SVGID_44_);}
	.st42{clip-path:url(#SVGID_44_);fill:#B67AF4;}
	.st43{fill:none;stroke:#42C694;stroke-linecap:round;stroke-linejoin:round;stroke-miterlimit:10;}
	.st44{clip-path:url(#SVGID_46_);fill:#FFFFFF;}
	.st45{clip-path:url(#SVGID_52_);fill:#FFFFFF;}
	.st46{fill:#009FE3;}
	.st47{fill:#6B1A6B;}
	.st48{fill:#D6006D;}
	.st49{fill:none;stroke:#42C694;stroke-miterlimit:10;}
	.st50{fill:#3B3D3D;}
</style>
<g>
	<rect x="5.8590422" y="118.462616" width="202.9787598" height="1"/>
</g>
<g>
	<path d="M49.0954933,166.5602722h-9.9677734l-1.9042969,4.0878906h-3.5l9.2675781-19.6000977h2.1845703l9.3242188,19.6000977h-3.5
		L49.0954933,166.5602722z M47.723423,163.6203308l-3.6396484-7.7563477l-3.6123047,7.7563477H47.723423z"/>
	<path d="M55.395298,163.4801941c0-4.4799805,3.5-7.4477539,7.9238281-7.4477539
		c2.0156212,0,3.7519493,0.5595703,4.9277306,1.5117188l-0.8955078,2.4921875l-0.140625,0.027832
		c-0.9238281-0.8398438-2.4355469-1.2597656-3.6953087-1.2597656c-2.6884766,0-4.9287109,1.8759766-4.9287109,4.7036133
		c0,2.800293,2.2128906,4.6762695,5.1240234,4.6762695c1.1484337,0,2.4648399-0.2802734,4.4248009-1.1479492v2.7436523
		c-1.0927734,0.5600586-2.828125,1.2041016-4.8164024,1.2041016
		C58.8669777,170.9841003,55.395298,167.9880066,55.395298,163.4801941z"/>
	<path d="M70.1511536,163.4801941c0-4.4799805,3.5-7.4477539,7.9238281-7.4477539
		c2.015625,0,3.7519531,0.5595703,4.9277344,1.5117188l-0.8955078,2.4921875l-0.140625,0.027832
		c-0.9238281-0.8398438-2.4355469-1.2597656-3.6953125-1.2597656c-2.6884766,0-4.9287109,1.8759766-4.9287109,4.7036133
		c0,2.800293,2.2128906,4.6762695,5.1240234,4.6762695c1.1484375,0,2.4648438-0.2802734,4.4248047-1.1479492v2.7436523
		c-1.0927734,0.5600586-2.828125,1.2041016-4.8164062,1.2041016
		C73.6228333,170.9841003,70.1511536,167.9880066,70.1511536,163.4801941z"/>
	<path d="M98.6267395,164.7399597H88.1824036c0.4482422,2.2124023,2.0449219,3.6123047,4.6201172,3.6123047
		c1.5400391,0,3.4160156-0.4482422,5.0126953-1.1762695v2.6040039c-0.7568359,0.4199219-3.0527344,1.2041016-5.4042969,1.2041016
		c-4.8164062,0-7.4482422-3.3037109-7.4482422-7.5878906c0-4.3681641,2.7158203-7.3637695,7.1962891-7.3637695
		c4.1162109,0,6.5234375,2.8276367,6.5234375,7.7836914C98.6824036,164.1520691,98.6550598,164.5441589,98.6267395,164.7399597z
		 M88.0984192,162.4723816h7.5605469c-0.1679688-2.2680664-1.2597656-3.8081055-3.5-3.8081055
		C89.806427,158.6642761,88.3513489,160.0920105,88.0984192,162.4723816z"/>
	<path d="M101.5954895,169.8083191l-0.5605469-3.2480469l0.0839844-0.0561523
		c1.484375,1.1479492,3.0517578,1.8759766,5.1523438,1.8759766c1.5400391,0,3.1074219-0.5317383,3.1074219-1.7358398
		c0-0.5878906-0.3632812-1.0361328-1.3710938-1.3720703l-4.1728516-1.2597656
		c-2.0712891-0.7001953-2.6318359-2.4360352-2.6318359-3.6679688c0-2.800293,2.4082031-4.3120117,5.9638672-4.3120117
		c1.6806641,0,3.640625,0.4199219,4.6484375,0.9516602v2.7719727c-1.2041016-0.7836914-3.0244141-1.1196289-4.5361328-1.1196289
		c-1.7636719,0-2.8837891,0.6157227-2.8837891,1.5957031c0,0.4760742,0.1679688,1.1762695,1.2041016,1.512207l4.1435547,1.1757812
		c1.9882812,0.644043,2.7998047,2.1000977,2.7998047,3.7519531c0,2.855957-2.3798828,4.3120117-6.1591797,4.3120117
		C104.5915833,170.9841003,102.8552551,170.5080261,101.5954895,169.8083191z"/>
	<path d="M114.7546692,163.4801941c0-4.3120117,3.4160156-7.4477539,7.671875-7.4477539
		c4.2841797,0,7.7001953,3.1357422,7.7001953,7.4477539c0,4.3681641-3.4160156,7.5039062-7.7001953,7.5039062
		C118.1706848,170.9841003,114.7546692,167.8483582,114.7546692,163.4801941z M126.9343567,163.4801941
		c0-2.6601562-2.0722656-4.6479492-4.5078125-4.6479492c-2.4082031,0-4.4804688,1.987793-4.4804688,4.6479492
		c0,2.6879883,2.0722656,4.7041016,4.4804688,4.7041016C124.8620911,168.1842957,126.9343567,166.1681824,126.9343567,163.4801941z"
		/>
	<path d="M142.6150208,156.2843933v3.5556641c-0.3085938-0.1679688-0.6162109-0.1958008-0.9521484-0.1958008
		c-2.4082031,0-3.9482422,1.7080078-5.0400391,3.6958008v7.3081055h-3.2197266v-14.2797852h3.2197266v4.4799805
		c1.2041016-2.5200195,2.8837891-4.815918,4.7880859-4.815918
		C141.9988098,156.0324402,142.3630676,156.1442566,142.6150208,156.2843933z"/>
	<path d="M144.9099426,151.4684753c0-1.1201172,0.8964844-1.9604492,1.9882812-1.9604492
		c1.1757812,0,2.015625,0.840332,2.015625,1.9604492c0,1.1196289-0.8955078,1.9599609-2.015625,1.9599609
		C145.806427,153.4284363,144.9099426,152.5881042,144.9099426,151.4684753z M145.3025208,156.3683777h3.2197266v14.2797852
		h-3.2197266V156.3683777z"/>
	<path d="M151.7976379,163.4801941c0-4.3120117,3.4160156-7.4477539,7.671875-7.4477539
		c4.2841797,0,7.7001953,3.1357422,7.7001953,7.4477539c0,4.3681641-3.4160156,7.5039062-7.7001953,7.5039062
		C155.2136536,170.9841003,151.7976379,167.8483582,151.7976379,163.4801941z M163.9773254,163.4801941
		c0-2.6601562-2.0722656-4.6479492-4.5078125-4.6479492c-2.4082031,0-4.4804688,1.987793-4.4804688,4.6479492
		c0,2.6879883,2.0722656,4.7041016,4.4804688,4.7041016C161.9050598,168.1842957,163.9773254,166.1681824,163.9773254,163.4801941z"
		/>
	<path d="M170.0261536,169.8083191l-0.5605469-3.2480469l0.0839844-0.0561523
		c1.484375,1.1479492,3.0517578,1.8759766,5.1523438,1.8759766c1.5400391,0,3.1074219-0.5317383,3.1074219-1.7358398
		c0-0.5878906-0.3632812-1.0361328-1.3710938-1.3720703l-4.1728516-1.2597656
		c-2.0712891-0.7001953-2.6318359-2.4360352-2.6318359-3.6679688c0-2.800293,2.4082031-4.3120117,5.9638672-4.3120117
		c1.6806641,0,3.640625,0.4199219,4.6484375,0.9516602v2.7719727c-1.2041016-0.7836914-3.0244141-1.1196289-4.5361328-1.1196289
		c-1.7636719,0-2.8837891,0.6157227-2.8837891,1.5957031c0,0.4760742,0.1679688,1.1762695,1.2041016,1.512207l4.1435547,1.1757812
		c1.9882812,0.644043,2.7998047,2.1000977,2.7998047,3.7519531c0,2.855957-2.3798828,4.3120117-6.1591797,4.3120117
		C173.0222473,170.9841003,171.2859192,170.5080261,170.0261536,169.8083191z"/>
</g>
<g>
	<g>
		<g>
			<path d="M106.7888489,18.0522881c-22.7439957,0-41.1817551,18.4377594-41.1817551,41.1817551
				s18.4377594,41.1817513,41.1817551,41.1817513s41.1817627-18.4377518,41.1817627-41.1817513
				C147.94487,36.5006828,129.5222015,18.0780258,106.7888489,18.0522881z M143.7371216,69.7957916l-2.5793457-0.8387375
				l-0.8497162,2.6081848l2.590332,0.8414764c-1.0714111,2.9223633-2.4938965,5.7038422-4.2362366,8.28302l-2.1963501-1.5923615
				l-1.6143188,2.2210693l2.1798859,1.5841293c-1.9183807,2.4485931-4.1241913,4.657486-6.56987,6.5794678l-1.5841217-2.1798859
				l-2.2210693,1.6143188l1.5923615,2.1963577c-2.5790024,1.740448-5.3599777,3.1610413-8.2816544,4.2307434l-0.8414764-2.590332
				l-2.6081772,0.8497162l0.8387299,2.5793533c-2.9940796,0.8572617-6.0818558,1.3454361-9.1945114,1.4537125v-2.7111282h-2.7454453
				v2.7111282c-3.1107712-0.1086121-6.1966553-0.5967865-9.1890259-1.4537125l0.8387375-2.5793533l-2.6081772-0.8497162
				l-0.8469849,2.5903397c-2.9223557-1.0714111-5.7038422-2.4939041-8.28302-4.2362289l1.5923615-2.1963577l-2.2210693-1.6143265
				L83.11483,89.4765625c-2.4473953-1.9202728-4.6550827-4.1279602-6.5753555-6.5753555l2.1798935-1.5841293l-1.6143265-2.2210693
				l-2.1963577,1.5923615c-1.7371826-2.5778122-3.1550369-5.35672-4.2225037-8.2761688l2.590332-0.8414764l-0.8497162-2.6081848
				l-2.5793533,0.8387375c-0.8596649-2.9939117-1.3500748-6.0816841-1.4605789-9.1945114h2.7111359v-2.7454529h-2.7111359
				c0.1086197-3.1107635,0.5967941-6.1966515,1.4537201-9.1890221l2.5793457,0.8387375l0.8497162-2.6081772l-2.5834656-0.8469696
				c1.0714111-2.9223633,2.4938965-5.703846,4.2362289-8.2830238l2.1963654,1.5923576l1.6143188-2.2210693l-2.1922379-1.5827484
				c1.9202652-2.4473991,4.1279526-4.6550827,6.5753479-6.5753536l1.5841293,2.1798878l2.2210693-1.6143246l-1.5923615-2.1963596
				c2.5793533-1.7380428,5.360321-3.1564121,8.2816467-4.223877l0.8414841,2.590332l2.6081772-0.8497162L96.221611,22.292635
				c2.9939194-0.8596687,6.0816879-1.3500748,9.194519-1.4605789v2.711132h2.7454453v-2.711132
				c3.1107712,0.1086159,6.1966553,0.5967922,9.1890259,1.4537163l-0.8387375,2.5793495l2.6081772,0.8497181l0.8469696-2.5834694
				c2.9223633,1.071413,5.7038422,2.4938984,8.28302,4.2362309l-1.5923538,2.1963596l2.2210617,1.6143246l1.584137-2.1798878
				c2.4473877,1.9202709,4.6550751,4.1279564,6.5753479,6.5753517l-2.1798859,1.5841255l1.6143188,2.2210693l2.1963654-1.5923576
				c1.7390594,2.5752296,3.1591492,5.3519096,4.2293549,8.2692947l-2.590332,0.8414841l0.8497162,2.6081772l2.579361-0.8387375
				c0.8572693,2.9940872,1.3454437,6.0818596,1.4537201,9.1945152h-2.7111359v2.7454491h2.7111359
				C145.0822144,63.7175331,144.5940399,66.803421,143.7371216,69.7957916z"/>
		</g>
	</g>
	<g>
		<g>
			<path d="M106.7888489,29.0340881c-16.6789474,0-30.1999512,13.5209999-30.1999512,30.199955
				s13.5210037,30.199955,30.1999512,30.199955S136.9888,75.9129944,136.9888,59.2340431
				C136.9699402,42.5629807,123.4599152,29.0529633,106.7888489,29.0340881z M106.7888489,86.6885452
				c-15.1627731,0-27.4544983-12.2917252-27.4544983-27.4545021s12.2917252-27.454504,27.4544983-27.454504
				s27.4545135,12.2917233,27.4545135,27.454504C134.2260284,74.3894424,121.9444275,86.6712112,106.7888489,86.6885452z"/>
		</g>
	</g>
	<g>
		<g>
			<path d="M106.7888489,35.8977127c-12.8883438,0-23.3363266,10.4479866-23.3363266,23.3363304
				s10.4479828,23.3363304,23.3363266,23.3363304s23.3363342-10.4479904,23.3363342-23.3363304
				C130.1107635,46.3517036,119.6711884,35.9121284,106.7888489,35.8977127z M124.4407272,48.6873932
				c1.5959625,2.6493607,2.5690536,5.6266289,2.8456573,8.7071991l-8.5973816-0.694603
				c-0.7555161-0.0634842-1.3164444-0.7275429-1.2527771-1.4828835c0.0301971-0.3581123,0.1995544-0.6901398,0.4716949-0.9248734
				L124.4407272,48.6873932z M111.3723831,39.1757812l-3.3165054,7.9618073
				c-0.2917023,0.6997452-1.0954361,1.030571-1.7951813,0.7388687c-0.3340912-0.1393318-0.5995407-0.4047813-0.7388687-0.7388687
				l-3.3165054-7.9618073C105.2198257,38.4655685,108.3578796,38.4655685,111.3723831,39.1757812z M89.1369781,48.6870499
				l6.5327988,5.6051826c0.5756836,0.4933205,0.6422653,1.3600273,0.148941,1.9355431
				c-0.2355957,0.2748871-0.5703659,0.4456177-0.9313965,0.4749603l-8.597374,0.694603
				C86.5665512,54.315567,87.5401535,51.3370972,89.1369781,48.6870499z M100.696701,69.7683334l-1.9932022,8.3983383
				c-2.8399963-1.2260208-5.368721-3.0731964-7.4003601-5.4057922h-0.0041122l7.346817-4.4819489
				c0.6470718-0.3951721,1.4918137-0.190979,1.8869858,0.4560852
				C100.7217484,69.0443954,100.7806091,69.4157181,100.696701,69.7683334z M114.8741989,78.1666718h-0.0041122
				l-1.9973145-8.3983383c-0.1755447-0.7374954,0.2800293-1.4777374,1.0175247-1.6532745
				c0.352623-0.0839081,0.7239456-0.0250549,1.0333252,0.1638641l7.3468246,4.4819489
				C120.2400131,75.0929642,117.7126541,76.9401398,114.8741989,78.1666718z M116.3567505,65.9343185
				c-1.9415512-1.1846619-4.475769-0.571228-5.6604385,1.3703156c-0.5660782,0.9277954-0.7426453,2.0419312-0.4907455,3.0992737
				l2.0590897,8.6591492c-3.5807571,1.0158157-7.3735962,1.0158157-10.9543457,0h-0.0027466l2.0590897-8.6591492
				c0.5260925-2.2126617-0.8411407-4.4330444-3.0539703-4.959137c-1.0568314-0.2512131-2.1699371-0.0748215-3.0972137,0.4909134
				l-7.5966644,4.6370697c-2.0511932-3.1021957-3.2176666-6.7047386-3.3741608-10.4203606l8.8650589-0.7165604
				c2.266716-0.185833,3.9536209-2.1742249,3.7677917-4.440937c-0.0887146-1.0808487-0.6000519-2.0831108-1.423172-2.7892075
				l-6.7538071-5.7929001c2.3207626-2.903656,5.3819427-5.1273003,8.860939-6.4367065l3.4208298,8.2130127
				c0.8742599,2.0995827,3.2851028,3.0930939,5.3848572,2.2186661c1.0034637-0.4178238,1.8008499-1.2153778,2.2186737-2.2186661
				l3.4222031-8.2130165c3.4786606,1.3097534,6.5398331,3.5333939,8.860939,6.4367104l-6.745575,5.7929001
				c-1.7262039,1.480999-1.9249039,4.0809402-0.4439087,5.8069687c0.706955,0.8239784,1.7105865,1.3353195,2.7926407,1.4231758
				l8.8650589,0.7165604c-0.1564865,3.7156219-1.3229599,7.3181648-3.3741608,10.4203606L116.3567505,65.9343185z"/>
		</g>
	</g>
	<g>
		<g>
			<path d="M106.7888489,53.7431412c-3.0325165,0-5.4908981,2.4583778-5.4908981,5.4909019
				c0,3.0325203,2.4583817,5.4909019,5.4908981,5.4909019c3.0325241,0,5.4909058-2.4583817,5.4909058-5.4909019
				C112.2797546,56.201519,109.821373,53.7431412,106.7888489,53.7431412z M106.7888489,61.9794922
				c-1.5163422,0-2.7454453-1.2291031-2.7454453-2.7454491c0-1.5163498,1.2291031-2.7454491,2.7454453-2.7454491
				c1.5163498,0,2.7454529,1.2290993,2.7454529,2.7454491C109.5343018,60.7503891,108.3051987,61.9794922,106.7888489,61.9794922z"
				/>
		</g>
	</g>
</g>
</svg>
