<?xml version="1.0" encoding="utf-8"?>
<!-- Generator: Adobe Illustrator 25.0.1, SVG Export Plug-In . SVG Version: 6.00 Build 0)  -->
<svg version="1.1" id="Capa_1" xmlns="http://www.w3.org/2000/svg" xmlns:xlink="http://www.w3.org/1999/xlink" x="0px" y="0px"
	 viewBox="0 0 184.851059 42.2127647" style="enable-background:new 0 0 184.851059 42.2127647;" xml:space="preserve">
<style type="text/css">
	.st0{clip-path:url(#SVGID_2_);}
	.st1{clip-path:url(#SVGID_2_);fill:#B67AF4;}
	.st2{fill:#FFFFFF;}
	.st3{clip-path:url(#SVGID_4_);}
	.st4{clip-path:url(#SVGID_4_);fill:#FFE164;}
	.st5{clip-path:url(#SVGID_6_);}
	.st6{clip-path:url(#SVGID_6_);fill:#FFE164;}
	.st7{fill:none;stroke:#FFFFFF;stroke-miterlimit:10;}
	.st8{fill:#9645DD;}
	.st9{fill:#EAEAEA;}
	.st10{clip-path:url(#SVGID_8_);}
	.st11{clip-path:url(#SVGID_8_);fill:none;}
	.st12{clip-path:url(#SVGID_12_);}
	.st13{clip-path:url(#SVGID_12_);fill:#B67AF4;}
	.st14{fill:none;stroke:#9645DD;stroke-linecap:round;stroke-linejoin:round;stroke-miterlimit:10;}
	.st15{clip-path:url(#SVGID_14_);}
	.st16{clip-path:url(#SVGID_14_);fill:#B67AF4;}
	.st17{fill:none;stroke:#EAEAEA;stroke-width:0.5;stroke-miterlimit:10;}
	.st18{fill:#9B9B9B;}
	.st19{clip-path:url(#SVGID_16_);fill:#FFFFFF;}
	.st20{fill:none;stroke:#CCCCCC;stroke-width:0.75;stroke-miterlimit:10;}
	.st21{fill:none;stroke:#B7B7B7;stroke-width:0.75;stroke-miterlimit:10;}
	.st22{fill:#42C694;}
	.st23{fill:#EF5B7B;}
	.st24{clip-path:url(#SVGID_22_);}
	.st25{clip-path:url(#SVGID_22_);fill:#B67AF4;}
	.st26{fill:none;stroke:#727272;stroke-width:0.75;stroke-miterlimit:10;}
	.st27{clip-path:url(#SVGID_24_);fill:#FFFFFF;}
	.st28{clip-path:url(#SVGID_30_);}
	.st29{clip-path:url(#SVGID_30_);fill:#B67AF4;}
	.st30{fill:#D2F9E5;}
	.st31{fill:none;stroke:#3B3D3D;stroke-miterlimit:10;}
	.st32{fill:#B7B7B7;}
	.st33{fill:#EFEFEF;}
	.st34{fill:none;stroke:#000000;stroke-width:0.75;stroke-miterlimit:10;}
	.st35{fill:none;stroke:#777777;stroke-width:0.75;stroke-miterlimit:10;}
	.st36{fill:none;stroke:#A0A0A0;stroke-width:0.75;stroke-miterlimit:10;}
	.st37{fill:#DEC5FF;}
	.st38{fill:none;stroke:#C1C1C1;stroke-width:0.75;stroke-miterlimit:10;}
	.st39{clip-path:url(#SVGID_32_);fill:#FFFFFF;}
	.st40{clip-path:url(#SVGID_38_);fill:#FFFFFF;}
	.st41{clip-path:url(#SVGID_44_);}
	.st42{clip-path:url(#SVGID_44_);fill:#B67AF4;}
	.st43{fill:none;stroke:#42C694;stroke-linecap:round;stroke-linejoin:round;stroke-miterlimit:10;}
	.st44{clip-path:url(#SVGID_46_);fill:#FFFFFF;}
	.st45{clip-path:url(#SVGID_52_);fill:#FFFFFF;}
	.st46{fill:#009FE3;}
	.st47{fill:#6B1A6B;}
	.st48{fill:#D6006D;}
	.st49{fill:none;stroke:#42C694;stroke-miterlimit:10;}
	.st50{fill:#3B3D3D;}
</style>
<g>
	<g>
		<path class="st2" d="M64.7679443,26.4875851h-7.3374062l-1.0053711,2.3369141h-3.9404297l8.0166016-18.2626953h1.2231445
			l7.9897499,18.2626953h-3.940918L64.7679443,26.4875851z M61.0994835,17.4377804l-2.3647461,6.0332031h4.7290039
			L61.0994835,17.4377804z"/>
		<path class="st2" d="M83.7659912,22.8996944c0,3.8046875-2.6630859,6.2509766-6.1689453,6.2509766
			c-3.5600586,0-6.2231445-2.4462891-6.2231445-6.2509766v-7.5273438h3.668457v7.8271484
			c0,1.5761719,1.1142578,2.5810547,2.5546875,2.5810547c1.3857422,0,2.5-1.0048828,2.5-2.5810547v-7.8271484h3.6689453V22.8996944z
			"/>
		<path class="st2" d="M95.9154053,25.7532101v3.0712891c-0.7612305,0.1904297-1.5761719,0.3261719-2.5273438,0.3261719
			c-3.3154297,0-5.3808594-1.6035156-5.3808594-5.0546875v-5.6259766H85.887085v-3.0976562h2.1201172v-3.3964844h3.668457v3.3964844
			h3.8046875v3.0976562h-3.8046875v5.2998047c0,1.5488281,0.8154297,2.0927734,2.5004883,2.0927734
			C94.6107178,25.8625851,95.2088623,25.8078976,95.9154053,25.7532101z"/>
		<path class="st2" d="M111.977417,22.0852413c0,3.9941406-3.2612305,7.0380859-7.2558594,7.0380859
			c-3.9951172,0-7.1743164-3.0439453-7.1743164-7.0380859c0-3.9677734,3.1791992-7.0117188,7.2011719-7.0117188
			C108.7161865,15.0735226,111.977417,18.1174679,111.977417,22.0852413z M101.2698975,22.1116085
			c0,2.1201172,1.4404297,3.6416016,3.4785156,3.6416016c1.9838867,0,3.4785156-1.5488281,3.4785156-3.6416016
			c0-2.1191406-1.4946289-3.6953125-3.4785156-3.6953125C102.7103271,18.416296,101.2698975,19.9924679,101.2698975,22.1116085z"/>
		<path class="st2" d="M128.7191162,22.2483273c0,3.8310547-2.7988281,6.8476562-6.5219727,6.8476562
			c-2.2011719,0-4.2939453-1.0595703-5.2993164-2.7988281v7.4189472h-1.3588867v-18.01758h1.3046875v2.6357422
			c0.9780273-1.7929688,3.0976562-2.9072266,5.3535156-2.9072266
			C125.9202881,15.4270382,128.7191162,18.4436398,128.7191162,22.2483273z M127.3060303,22.2746944
			c0-3.1523438-2.2011719-5.5703125-5.2446289-5.5703125c-2.5820312,0-5.1635742,1.6572266-5.1635742,5.5439453
			c0,3.9130859,2.581543,5.5703125,5.1635742,5.5703125C125.1048584,27.8186398,127.3060303,25.4270382,127.3060303,22.2746944z"/>
		<path class="st2" d="M142.0916748,20.5901241v8.234375h-1.3041992v-2.0380859
			c-0.9785156,1.4404297-2.6362305,2.3095703-4.7016602,2.3095703c-2.418457,0-4.5112305-1.2226562-4.5112305-3.5595703
			c0-2.1474609,1.8208008-3.5058594,4.5654297-3.5058594h4.565918v-1.4951172c0-2.5810547-1.4677734-3.8310547-3.6147461-3.8310547
			c-1.7661133,0-2.9619141,0.8691406-3.9946289,2.2011719l-0.9511719-0.7607422
			c1.25-1.7939453,2.9619141-2.7177734,5.0273438-2.7177734C140.0262451,15.4270382,142.0916748,17.166296,142.0916748,20.5901241z
			 M140.7059326,23.9328976v-0.7333984h-4.4296875c-2.1469727,0-3.2885742,0.8144531-3.2885742,2.2548828
			c0,1.7119141,1.6308594,2.4462891,3.2338867,2.4462891C138.6405029,27.900671,140.7059326,26.2161007,140.7059326,23.9328976z"/>
		<path class="st2" d="M153.4261475,15.6985226v1.1953125H152.74646c-2.1738281,0-4.456543,1.4951172-4.456543,4.2128906v7.7177734
			h-1.3588867V15.6985226h1.3046875v2.2011719c0.9780273-1.5214844,2.6088867-2.2822266,4.3481445-2.2822266
			C152.9642334,15.6174679,153.1815186,15.6711788,153.4261475,15.6985226z"/>
		<path class="st2" d="M163.0198975,27.6291866v1.1953125c-0.625,0.1630859-1.25,0.2714844-2.0380859,0.2714844
			c-2.2832031,0-4.0224609-1.0869141-4.0224609-3.9404297v-8.2070312h-2.2827148v-1.25h2.2827148v-3.7226562h1.3862305v3.7226562
			h4.2392578v1.25h-4.2392578v8.1533203c0,2.1464844,1.25,2.7441406,2.8535156,2.7441406
			C161.8240967,27.8459835,162.3675537,27.7649288,163.0198975,27.6291866z"/>
		<path class="st2" d="M177.4241943,22.5744991h-10.9516602c0.1357422,3.0703125,2.3911133,5.2441406,5.3803711,5.2441406
			c1.8208008,0,3.2885742-0.7880859,4.3754883-2.0654297l0.8696289,0.8974609
			c-1.2773438,1.4941406-3.0981445,2.4453125-5.2719727,2.4453125c-3.8046875,0-6.7939453-2.9892578-6.7939453-6.8212891
			c0-3.8046875,2.9077148-6.8476562,6.6308594-6.8476562c3.206543,0,5.8701172,2.2548828,5.8701172,5.8427734
			C177.5330811,21.9221554,177.4515381,22.4651241,177.4241943,22.5744991z M166.5267334,21.3508663h9.5927734
			c0.1088867-2.9345703-2.0380859-4.6738281-4.5107422-4.6738281
			C168.9451904,16.6770382,166.8797607,18.6330929,166.5267334,21.3508663z"/>
	</g>
	<circle class="st2" cx="20.3404255" cy="20.7596493" r="19.4105625"/>
</g>
</svg>
