<?xml version="1.0" encoding="utf-8"?>
<!-- Generator: Adobe Illustrator 25.0.1, SVG Export Plug-In . SVG Version: 6.00 Build 0)  -->
<svg version="1.1" id="Capa_1" xmlns="http://www.w3.org/2000/svg" xmlns:xlink="http://www.w3.org/1999/xlink" x="0px" y="0px"
	 viewBox="0 0 220.0851135 174.2672272" style="enable-background:new 0 0 220.0851135 174.2672272;" xml:space="preserve">
<style type="text/css">
	.st0{clip-path:url(#SVGID_2_);}
	.st1{clip-path:url(#SVGID_2_);fill:#B67AF4;}
	.st2{fill:#FFFFFF;}
	.st3{clip-path:url(#SVGID_4_);}
	.st4{clip-path:url(#SVGID_4_);fill:#FFE164;}
	.st5{clip-path:url(#SVGID_6_);}
	.st6{clip-path:url(#SVGID_6_);fill:#FFE164;}
	.st7{fill:none;stroke:#FFFFFF;stroke-miterlimit:10;}
	.st8{fill:#9645DD;}
	.st9{fill:#EAEAEA;}
	.st10{clip-path:url(#SVGID_8_);}
	.st11{clip-path:url(#SVGID_8_);fill:none;}
	.st12{clip-path:url(#SVGID_12_);}
	.st13{clip-path:url(#SVGID_12_);fill:#B67AF4;}
	.st14{fill:none;stroke:#9645DD;stroke-linecap:round;stroke-linejoin:round;stroke-miterlimit:10;}
	.st15{clip-path:url(#SVGID_14_);}
	.st16{clip-path:url(#SVGID_14_);fill:#B67AF4;}
	.st17{fill:none;stroke:#EAEAEA;stroke-width:0.5;stroke-miterlimit:10;}
	.st18{fill:#9B9B9B;}
	.st19{clip-path:url(#SVGID_16_);fill:#FFFFFF;}
	.st20{fill:none;stroke:#CCCCCC;stroke-width:0.75;stroke-miterlimit:10;}
	.st21{fill:none;stroke:#B7B7B7;stroke-width:0.75;stroke-miterlimit:10;}
	.st22{fill:#42C694;}
	.st23{fill:#EF5B7B;}
	.st24{clip-path:url(#SVGID_22_);}
	.st25{clip-path:url(#SVGID_22_);fill:#B67AF4;}
	.st26{fill:none;stroke:#727272;stroke-width:0.75;stroke-miterlimit:10;}
	.st27{clip-path:url(#SVGID_24_);fill:#FFFFFF;}
	.st28{clip-path:url(#SVGID_30_);}
	.st29{clip-path:url(#SVGID_30_);fill:#B67AF4;}
	.st30{fill:#D2F9E5;}
	.st31{fill:none;stroke:#3B3D3D;stroke-miterlimit:10;}
	.st32{fill:#B7B7B7;}
	.st33{fill:#EFEFEF;}
	.st34{fill:none;stroke:#000000;stroke-width:0.75;stroke-miterlimit:10;}
	.st35{fill:none;stroke:#777777;stroke-width:0.75;stroke-miterlimit:10;}
	.st36{fill:none;stroke:#A0A0A0;stroke-width:0.75;stroke-miterlimit:10;}
	.st37{fill:#DEC5FF;}
	.st38{fill:none;stroke:#C1C1C1;stroke-width:0.75;stroke-miterlimit:10;}
	.st39{clip-path:url(#SVGID_32_);fill:#FFFFFF;}
	.st40{clip-path:url(#SVGID_38_);fill:#FFFFFF;}
	.st41{clip-path:url(#SVGID_44_);}
	.st42{clip-path:url(#SVGID_44_);fill:#B67AF4;}
	.st43{fill:none;stroke:#42C694;stroke-linecap:round;stroke-linejoin:round;stroke-miterlimit:10;}
	.st44{clip-path:url(#SVGID_46_);fill:#FFFFFF;}
	.st45{clip-path:url(#SVGID_52_);fill:#FFFFFF;}
	.st46{fill:#009FE3;}
	.st47{fill:#6B1A6B;}
	.st48{fill:#D6006D;}
	.st49{fill:none;stroke:#42C694;stroke-miterlimit:10;}
</style>
<g>
	<g>
		<path d="M99.065094,151.4674988v19.6000977h-3.4443359v-12.3198242l-7.0556641,9.2397461h-0.7001953l-7.0566406-9.2397461
			v12.3198242h-3.4433594v-19.6000977h1.9599609l8.9033203,11.8720703l8.8759766-11.8720703H99.065094z"/>
		<path d="M102.5094299,163.8996277c0-4.3120117,3.4160156-7.4477539,7.671875-7.4477539
			c4.2841797,0,7.7001953,3.1357422,7.7001953,7.4477539c0,4.3681641-3.4160156,7.5039062-7.7001953,7.5039062
			C105.9254456,171.4035339,102.5094299,168.2677917,102.5094299,163.8996277z M114.6891174,163.8996277
			c0-2.6601562-2.0722656-4.6479492-4.5078125-4.6479492c-2.4082031,0-4.4804688,1.987793-4.4804688,4.6479492
			c0,2.6879883,2.0722656,4.7041016,4.4804688,4.7041016C112.6168518,168.6037292,114.6891174,166.587616,114.6891174,163.8996277z"
			/>
		<path d="M131.4615784,167.9875183v2.7441406c-0.7275391,0.4199219-2.1835938,0.671875-3.5556641,0.671875
			c-4.1445312,0-5.6845703-2.9960938-5.6845703-6.355957v-5.6557617h-3.1074219v-2.6040039h3.1074219v-4.2001953
			l3.2207031-0.7558594v4.9560547h5.8515625l-0.9521484,2.6040039h-4.8994141v5.5996094
			c0,2.0439453,0.8955078,3.6123047,3.0517578,3.6123047C129.5299377,168.6037292,130.705719,168.3517761,131.4615784,167.9875183z"
			/>
		<path d="M132.7496643,163.8996277c0-4.3120117,3.4160156-7.4477539,7.671875-7.4477539
			c4.2841797,0,7.7001953,3.1357422,7.7001953,7.4477539c0,4.3681641-3.4160156,7.5039062-7.7001953,7.5039062
			C136.1656799,171.4035339,132.7496643,168.2677917,132.7496643,163.8996277z M144.9293518,163.8996277
			c0-2.6601562-2.0722656-4.6479492-4.5078125-4.6479492c-2.4082031,0-4.4804688,1.987793-4.4804688,4.6479492
			c0,2.6879883,2.0722656,4.7041016,4.4804688,4.7041016C142.8570862,168.6037292,144.9293518,166.587616,144.9293518,163.8996277z"
			/>
	</g>
	<g>
		<rect x="5.8590422" y="118.462616" width="202.9787598" height="1"/>
	</g>
	<g>
		<g>
			<path d="M70.6417389,47.0978127c-10.3490562,0-18.7682877,8.4194565-18.7682877,18.7682915
				s8.4194489,18.7682877,18.76828,18.7682877s18.7682877-8.4194565,18.7682877-18.7682877
				c0-7.3110199-4.2047577-13.6544838-10.3199081-16.7514725l1.7845306-4.9022751l16.7514725,18.894146
				c0.0209732,0.0236282,0.0441589,0.0441666,0.0657959,0.0666847c1.6858368,1.8618164,4.1122513,3.0395813,6.8091354,3.0678482
				h0.0013275l22.9425812,1.0108337c0.7123032,9.7036438,8.8292618,17.3825302,18.7115402,17.3825302
				c10.3488312,0,18.76828-8.4194565,18.76828-18.7682877s-8.4194489-18.7682915-18.76828-18.7682915
				c-9.318573,0-17.0692139,6.8274651-18.5209885,15.7419586l-2.6023941-0.1146011l-0.6456223-7.1107521
				c1.1572266-1.0468292,2.2890701-2.0779839,3.3891068-3.0808716
				c11.1390839-10.1536407,19.9372253-18.1736603,29.8477631-18.8016243
				c0.4813538-0.0306931,0.9397278-0.2179337,1.3045044-0.5334625l5.2319336-4.5233803
				c0.540741-0.4672184,0.8216095-1.1673832,0.7540436-1.879034c-0.0675659-0.7114296-0.475174-1.3462391-1.0940857-1.7034969
				c-8.3876495-4.8426628-15.3961792-1.9821548-22.1735077,0.7836285c-2.0110779,0.8209476-4.0903931,1.6697178-5.9491119,2.3771725
				c-1.1397858,0.4336586-1.7118835,1.70924-1.2782288,2.8488064c0.4338837,1.1397877,1.7090149,1.713213,2.8490295,1.2782307
				c1.9077454-0.7259998,4.0119934-1.5847054,6.0469208-2.4153671c6.1188965-2.4972897,10.4751282-4.0579262,15.3707886-2.395277
				l-2.0980835,1.8141212c-11.1150208,1.042635-20.2673187,9.3854694-31.78685,19.8859959
				c-1.1561279,1.0536728-2.3458176,2.1382561-3.5620041,3.2376366h-5.5801392l-2.8342361-11.7988472v-4.1667824
				c1.5604172-0.017662,2.999176-0.0545387,4.3500519-0.1119461c1.2183914-0.0518875,2.1638718-1.0817184,2.1119843-2.3001099
				c-0.0518875-1.2183952-1.0837021-2.1579113-2.3001099-2.1119843c-1.6136322,0.0686684-3.360405,0.1073074-5.3081131,0.117466
				c-3.4747849-4.0526237-9.385025-6.6210098-15.4140625-6.6210098h-8.5837326l2.8333511-7.7833214h8.8319168
				c1.2194977,0,2.2080307-0.9887562,2.2080307-2.2080326s-0.988533-2.2080345-2.2080307-2.2080345H88.9688568
				c-0.9282608,0-1.7573776,0.5804939-2.0748901,1.4526663L74.9414368,47.6005898
				c-1.3817825-0.3252411-2.8200989-0.5027695-4.2996979-0.5027695V47.0978127z M99.6957092,56.9235725
				c0-2.7037392,2.199646-4.9036026,4.9036026-4.9036026c2.7039642,0,4.9038239,2.1998634,4.9038239,4.9036026
				c0,2.7039528-2.1998596,4.9038162-4.9038239,4.9038162C101.8953552,61.8273888,99.6957092,59.6275291,99.6957092,56.9235725z
				 M104.5993042,47.6039047c-4.2087326,0-7.7731628,2.8053055-8.9261932,6.6435318l-9.8138275-11.0688744h23.0174332
				l1.5582123,6.4858742c-1.5986176-1.2875023-3.6280289-2.0605354-5.8356171-2.0605354L104.5993042,47.6039047z
				 M96.2648621,29.9303589c4.7561035,0,9.5340729,2.057003,12.1441879,5.1749687v3.6571655H82.8581238l3.2153397-8.8321342
				h10.1914062H96.2648621z M120.5812759,62.5291061l-8.2798996-0.364769
				c1.0201111-1.4943924,1.6178207-3.2987976,1.6178207-5.2407646h6.1531296L120.5812759,62.5291061z M146.1564941,80.2183228
				c-7.3790283,0-13.4729767-5.5984726-14.2630157-12.7703857l4.4898224,0.1978378
				c0.8414764,4.6320114,4.9020538,8.1564789,9.7731934,8.1564789c5.4787903,0,9.9361572-4.4573593,9.9361572-9.9361496
				s-4.4573669-9.9361534-9.9361572-9.9361534c-4.5675354,0-8.42276,3.0989761-9.5793304,7.3039551l-4.4911499-0.1978378
				c1.3179779-6.5629387,7.1253357-11.5221786,14.0704803-11.5221786c7.9138184,0,14.3522186,6.4384041,14.3522186,14.3522224
				s-6.4384003,14.3522186-14.3522186,14.3522186V80.2183228z M148.3623199,65.9634857
				c0.0536652-1.2183914-0.890274-2.2495422-2.1086731-2.3031998l-5.0528564-0.2225685
				c0.9002075-1.8293571,2.7830048-3.0916939,4.9557037-3.0916939c3.0437775,0,5.5200806,2.4763107,5.5200806,5.5200882
				c0,3.0437698-2.4763031,5.5200806-5.5200806,5.5200806c-2.3449249,0-4.351593-1.4703293-5.1500092-3.5368271l5.0528564,0.2225647
				c0.0328979,0.0015488,0.0660248,0.0022125,0.0986938,0.0022125
				C147.3327179,68.0741425,148.3099976,67.1485367,148.3623199,65.9634857z M70.6417465,80.2183228
				c-7.9138184,0-14.3522224-6.4384079-14.3522224-14.3522186s6.4384041-14.3522224,14.3522224-14.3522224
				c0.9496689,0,1.8772659,0.094944,2.7759323,0.2718048l-1.5376663,4.2241936
				c-0.4060593-0.0507851-0.8187408-0.0799294-1.238266-0.0799294c-5.4787979,0-9.9361534,4.4573593-9.9361534,9.9361534
				s4.4573555,9.9361496,9.9361534,9.9361496c5.4787903,0,9.9361496-4.4573593,9.9361496-9.9361496
				c0-3.4942131-1.8145599-6.5706673-4.5492096-8.3426132l1.537674-4.223526
				c4.4242401,2.4476089,7.4276047,7.1619797,7.4276047,12.5661469c0,7.9138107-6.4384079,14.3522186-14.3522186,14.3522186
				V80.2183228z M74.4457397,61.8717842c1.0560989,1.0062027,1.7160797,2.4241982,1.7160797,3.9943275
				c0,3.0437775-2.4763031,5.5200882-5.5200806,5.5200882s-5.5200882-2.4763107-5.5200882-5.5200882
				c0-2.9280739,2.2917175-5.329525,5.175415-5.5079384l-1.730217,4.7527885
				c-0.4170914,1.145752,0.1737747,2.412941,1.319519,2.83004c0.2492981,0.090744,0.5045395,0.1338043,0.7551575,0.1338043
				c0.9019852,0,1.7485428-0.5566483,2.0751114-1.453331L74.4457397,61.8717842z"/>
			<path d="M129.1683197,33.158062c0-1.2192783-0.9876556-2.2080345-2.2071457-2.2080345h-0.0015488
				c-1.2194901,0-2.2080307,0.9887562-2.2080307,2.2080345c0,1.2192764,0.9885406,2.2080345,2.2080307,2.2080345
				C128.1791229,35.3660965,129.1683197,34.3773384,129.1683197,33.158062z"/>
		</g>
	</g>
</g>
</svg>
