<?xml version="1.0" encoding="utf-8"?>
<!-- Generator: Adobe Illustrator 25.0.1, SVG Export Plug-In . SVG Version: 6.00 Build 0)  -->
<svg version="1.1" id="Capa_1" xmlns="http://www.w3.org/2000/svg" xmlns:xlink="http://www.w3.org/1999/xlink" x="0px" y="0px"
	 viewBox="0 0 220.0851135 174.2672272" style="enable-background:new 0 0 220.0851135 174.2672272;" xml:space="preserve">
<style type="text/css">
	.st0{clip-path:url(#SVGID_2_);}
	.st1{clip-path:url(#SVGID_2_);fill:#B67AF4;}
	.st2{fill:#FFFFFF;}
	.st3{clip-path:url(#SVGID_4_);}
	.st4{clip-path:url(#SVGID_4_);fill:#FFE164;}
	.st5{clip-path:url(#SVGID_6_);}
	.st6{clip-path:url(#SVGID_6_);fill:#FFE164;}
	.st7{fill:none;stroke:#FFFFFF;stroke-miterlimit:10;}
	.st8{fill:#9645DD;}
	.st9{fill:#EAEAEA;}
	.st10{clip-path:url(#SVGID_8_);}
	.st11{clip-path:url(#SVGID_8_);fill:none;}
	.st12{clip-path:url(#SVGID_12_);}
	.st13{clip-path:url(#SVGID_12_);fill:#B67AF4;}
	.st14{fill:none;stroke:#9645DD;stroke-linecap:round;stroke-linejoin:round;stroke-miterlimit:10;}
	.st15{clip-path:url(#SVGID_14_);}
	.st16{clip-path:url(#SVGID_14_);fill:#B67AF4;}
	.st17{fill:none;stroke:#EAEAEA;stroke-width:0.5;stroke-miterlimit:10;}
	.st18{fill:#9B9B9B;}
	.st19{clip-path:url(#SVGID_16_);fill:#FFFFFF;}
	.st20{fill:none;stroke:#CCCCCC;stroke-width:0.75;stroke-miterlimit:10;}
	.st21{fill:none;stroke:#B7B7B7;stroke-width:0.75;stroke-miterlimit:10;}
	.st22{fill:#42C694;}
	.st23{fill:#EF5B7B;}
	.st24{clip-path:url(#SVGID_22_);}
	.st25{clip-path:url(#SVGID_22_);fill:#B67AF4;}
	.st26{fill:none;stroke:#727272;stroke-width:0.75;stroke-miterlimit:10;}
	.st27{clip-path:url(#SVGID_24_);fill:#FFFFFF;}
	.st28{clip-path:url(#SVGID_30_);}
	.st29{clip-path:url(#SVGID_30_);fill:#B67AF4;}
	.st30{fill:#D2F9E5;}
	.st31{fill:none;stroke:#3B3D3D;stroke-miterlimit:10;}
	.st32{fill:#B7B7B7;}
	.st33{fill:#EFEFEF;}
	.st34{fill:none;stroke:#000000;stroke-width:0.75;stroke-miterlimit:10;}
	.st35{fill:none;stroke:#777777;stroke-width:0.75;stroke-miterlimit:10;}
	.st36{fill:none;stroke:#A0A0A0;stroke-width:0.75;stroke-miterlimit:10;}
	.st37{fill:#DEC5FF;}
	.st38{fill:none;stroke:#C1C1C1;stroke-width:0.75;stroke-miterlimit:10;}
	.st39{clip-path:url(#SVGID_32_);fill:#FFFFFF;}
	.st40{clip-path:url(#SVGID_38_);fill:#FFFFFF;}
	.st41{clip-path:url(#SVGID_44_);}
	.st42{clip-path:url(#SVGID_44_);fill:#B67AF4;}
	.st43{fill:none;stroke:#42C694;stroke-linecap:round;stroke-linejoin:round;stroke-miterlimit:10;}
	.st44{clip-path:url(#SVGID_46_);fill:#FFFFFF;}
	.st45{clip-path:url(#SVGID_52_);fill:#FFFFFF;}
	.st46{fill:#009FE3;}
	.st47{fill:#6B1A6B;}
	.st48{fill:#D6006D;}
	.st49{fill:none;stroke:#42C694;stroke-miterlimit:10;}
</style>
<g>
	<g>
		<path d="M87.5129547,166.9797058h-9.9677734l-1.9042969,4.0878906h-3.5l9.2675781-19.6000977h2.1845703l9.3242188,19.6000977h-3.5
			L87.5129547,166.9797058z M86.1408844,164.0397644l-3.6396484-7.7563477l-3.6123047,7.7563477H86.1408844z"/>
		<path d="M107.7844391,156.7878113v14.2797852h-2.8271484l-0.1679688-2.8837891
			c-0.9804688,1.7358398-2.8564453,3.2197266-4.984375,3.2197266c-3.1357422,0-5.1240234-2.2958984-5.1240234-5.8237305v-8.7919922
			H97.90065v8.4277344c0,2.0722656,1.1767578,3.3881836,2.96875,3.3881836c1.2597656,0,2.7714844-0.840332,3.7236328-2.15625
			v-9.659668H107.7844391z"/>
		<path d="M122.7649078,167.9875183v2.7441406c-0.7275391,0.4199219-2.1835938,0.671875-3.5556641,0.671875
			c-4.1445312,0-5.6845703-2.9960938-5.6845703-6.355957v-5.6557617h-3.1074219v-2.6040039h3.1074219v-4.2001953
			l3.2207031-0.7558594v4.9560547h5.8515625l-0.9521484,2.6040039h-4.8994141v5.5996094
			c0,2.0439453,0.8955078,3.6123047,3.0517578,3.6123047C120.8332672,168.6037292,122.0090485,168.3517761,122.7649078,167.9875183z
			"/>
		<path d="M124.0529938,163.8996277c0-4.3120117,3.4160156-7.4477539,7.671875-7.4477539
			c4.2841797,0,7.7001953,3.1357422,7.7001953,7.4477539c0,4.3681641-3.4160156,7.5039062-7.7001953,7.5039062
			C127.4690094,171.4035339,124.0529938,168.2677917,124.0529938,163.8996277z M136.2326813,163.8996277
			c0-2.6601562-2.0722656-4.6479492-4.5078125-4.6479492c-2.4082031,0-4.4804688,1.987793-4.4804688,4.6479492
			c0,2.6879883,2.0722656,4.7041016,4.4804688,4.7041016C134.1604156,168.6037292,136.2326813,166.587616,136.2326813,163.8996277z"
			/>
	</g>
	<g>
		<g>
			<path d="M164.6511383,32.7631111c-0.2320099-0.1801872-14.9705353-11.6695805-14.9705353-11.6695805
				c-2.6116943-2.0370197-5.9032593-3.1686707-9.2148895-3.1686707H98.3947067
				c-3.8180771,0-7.0575714,1.5318661-10.0353775,3.7894344L72.9328613,33.4088707
				c-1.2175751,0.9230766-2.6512756,1.5547791-4.1459122,1.8266258c-0.0505142,0.0091171-0.1010284,0.02005-0.1512833,0.0322876
				l-17.8457375,4.3544807c-4.1948624,0.7866364-7.8225975,3.7139244-9.4807549,7.6559525l-2.2979279,5.458786
				c-1.4641647,3.470459-1.0709801,7.4523201,1.0514488,10.6509361c2.1247711,3.2022629,5.6423607,5.1140289,9.409668,5.1140289
				h5.6202278c0.8848,6.4977417,6.4664917,11.5224609,13.2030106,11.5224609
				c6.7365112,0,12.3182068-5.0247192,13.2030106-11.5224609h14.3984528c1.4381256,0,2.6038818-1.1657562,2.6038818-2.6038895
				c0-1.4381256-1.1657562-2.6038857-2.6038818-2.6038857H81.1827545
				c-1.5250931-5.7584915-6.9291992-9.9273186-12.8879318-9.9273186c-5.9548302,0-11.363102,4.1745567-12.8879356,9.9273186
				h-5.9345207c-2.0177498,0-3.9128609-1.0412903-5.0702896-2.7853737
				c-1.1720085-1.7667389-1.3881302-3.8615608-0.5916023-5.7493782l0.5345802-1.2699203h4.0873184
				c1.4381294,0,2.6038895-1.1657562,2.6038895-2.6038857s-1.16576-2.6038895-2.6038895-2.6038895H46.635952
				c1.1306076-1.8391266,3.0233765-3.1637192,5.1616859-3.5496178c0.0518188-0.0093727,0.1033745-0.0203094,0.1546707-0.0328102
				l17.8465195-4.3544807c2.2390823-0.420269,4.3828659-1.3665237,6.2123489-2.7372055
				c1.7141418,2.3677139,4.503685,3.8821335,7.5564804,3.8821335h31.1575928c3.3715057,0,6.1144409-2.7429352,6.1144409-6.1147079
				V23.1331425h7.9142609v11.5526638c0,3.3715134,2.7429352,6.1144485,6.1144409,6.1144485h19.0695648
				c3.1720581,0,6.1925659-1.1040497,8.5938721-3.0819626c2.5617065,2.0305138,3.7123566,3.2092896,3.7123566,5.0770607v17.4048996
				c0,1.7060661-1.3904724,3.0939331-3.0999298,3.0939331h-3.40979c-1.5243073-5.7699509-6.9177399-9.9273186-12.885849-9.9273186
				c-5.9696655,0-11.3638763,4.1558037-12.8884583,9.9273186h-15.1554031c-1.4381332,0-2.6038895,1.16576-2.6038895,2.6038857
				c0,1.4381332,1.1657562,2.6038895,2.6038895,2.6038895h14.8398056
				c0.8848114,6.4977417,6.466507,11.5224609,13.2030029,11.5224609c6.7365112,0,12.3182068-5.0247192,13.2030182-11.5224609
				h3.0939331c4.5807648,0,8.3077087-3.7240829,8.3077087-8.3017082V42.7953491
				c-0.0002747-4.7505341-3.1517487-7.1979256-6.8011017-10.0322571L164.6511383,32.7631111z M68.2956009,74.8166656
				c-4.4779015,0-8.1209984-3.6430969-8.1209984-8.1210022c0-4.2573547,3.4610863-7.897583,7.7142754-8.1105881
				c4.5617523-0.2265358,8.5277252,3.5428467,8.5277252,8.1105881
				C76.4166031,71.1735687,72.7735062,74.8166656,68.2956009,74.8166656L68.2956009,74.8166656z M115.6319199,35.3748055
				c0,0.4999466-0.4067307,0.9069366-0.9066696,0.9069366H83.5673981c-1.3920364,0-2.6603928-0.7121658-3.4077072-1.8162117
				l12.3257599-9.3440475c1.6841965-1.2785091,3.7938614-1.9872875,5.9076996-1.9872875h17.2385178v12.2406101H115.6319199z
				 M134.8683929,35.5922318c-0.4999542,0-0.9066772-0.406723-0.9066772-0.9066696v-11.551363h6.503479
				c2.1586304,0,4.3123016,0.7369003,6.0136719,2.0674858l11.7815552,9.1839123
				c-1.2865906,0.7819481-2.7757416,1.2068977-4.3221893,1.2068977h-19.0698242L134.8683929,35.5922318z M146.8473206,74.8166656
				c-4.4779053,0-8.1210022-3.6430969-8.1210022-8.1210022c0-4.4044762,3.7105408-8.1209984,8.1210022-8.1209984
				c4.410202,0,8.1209869,3.7191277,8.1209869,8.1209984C154.9683075,71.1735687,151.3252106,74.8166656,146.8473206,74.8166656z"/>
			<path d="M119.9267731,50.8853874c0-1.4381294-1.1657562-2.6038857-2.6038818-2.6038857h-5.2679214
				c-1.4381332,0-2.6038895,1.1657562-2.6038895,2.6038857s1.1657562,2.6038857,2.6038895,2.6038857h5.2679214
				C118.7610168,53.4892731,119.9267731,52.3235168,119.9267731,50.8853874z"/>
			<path d="M110.008049,64.9026337c-0.5382233-1.3128815-2.0924911-1.950573-3.4006805-1.4087067
				c-1.3105316,0.5426559-1.9513474,2.0901413-1.408699,3.4006729c0.5429077,1.3107986,2.0909195,1.9495316,3.4006729,1.4087067
				C109.9083176,67.7627411,110.5530396,66.2108231,110.008049,64.9026337z"/>
		</g>
	</g>
	<g>
		<rect x="8.6411266" y="118.462616" width="202.9787598" height="1"/>
	</g>
	<g>
		<g>
			<path d="M130.4404602,47.0017548h-10.4555283c-1.0896301,0-1.9728928,0.883461-1.9728928,1.9728889
				c0,1.0896263,0.8832626,1.9728889,1.9728928,1.9728889h10.4555283c1.0896301,0,1.9728851-0.8834572,1.9728851-1.9728889
				C132.4133453,47.8852158,131.5300903,47.0017548,130.4404602,47.0017548z"/>
		</g>
	</g>
</g>
</svg>
